<svg width="14" height="13" viewBox="0 0 14 13" fill="none" xmlns="http://www.w3.org/2000/svg">
<path id="Vector" d="M13.4 8.4C13.2 8.2 13 8.2 12.8 8.2C12.8 8.2 12.1 8.3 11 8.5C10.8 8.6 10.5 8.6 10.3 8.7C8.9 9.1 7.7 9.7 6.8 10.4C5.8 9.6 4.6 9.1 3.5 8.7C4.3 7.9 5.5 7.4 6.8 7.4C7.7 7.4 8.5 7.6 9.2 8C9.6 8.2 10.2 8.1 10.4 7.7C10.5 7.5 10.5 7.3 10.5 7C10.4 6.8 10.3 6.6 10.1 6.5C9.7 6.3 9.3 6.1 8.8 6C9.6 5.5 10.2 4.5 10.2 3.4C10.2 1.5 8.7 0 6.8 0C4.9 0 3.4 1.5 3.4 3.4C3.4 4.5 3.9 5.5 4.8 6.1H4.7C3.4 6.5 2.4 7.3 1.6 8.3C1.2 8.3 0.900002 8.3 0.900002 8.3C0.400002 8.2 0 8.6 0 9.1C0 9.3 0.100001 9.6 0.200001 9.7C0.400001 9.9 0.600003 10 0.800003 10C0.900003 10 1.8 10.1 2.9 10.4C4.4 10.8 5.5 11.4 6.1 12.2C6.3 12.4 6.5 12.5 6.8 12.5C7 12.5 7.2 12.4 7.3 12.3C7.4 12.2 7.5 12.2 7.5 12.1C8.3 11.1 9.7 10.6 10.7 10.3C10.9 10.2 11.1 10.2 11.3 10.1C12.1 9.9 12.7 9.9 12.8 9.9C13 9.9 13.2 9.8 13.4 9.6C13.6 9.4 13.6 9.2 13.6 9C13.7 8.8 13.6 8.6 13.4 8.4Z" fill="#FFD80E"/>
</svg>
