<svg width="14" height="13" viewBox="0 0 14 13" fill="none" xmlns="http://www.w3.org/2000/svg">
<path id="Vector" d="M13.2392 5.1C13.1392 4.9 12.9392 4.7 12.7392 4.7L8.93923 4.1L7.23923 0.8C7.13923 0.6 6.93923 0.5 6.63923 0.5C6.33923 0.5 6.13923 0.6 6.03923 0.8L4.33923 4.1L0.53923 4.6C0.33923 4.6 0.13923 4.8 0.0392304 5C-0.0607697 5.2 0.0392311 5.5 0.239231 5.6L3.03923 8.2L2.33923 11.9C2.33923 12.1 2.43923 12.4 2.53923 12.5C2.63923 12.6 2.83923 12.6 2.93923 12.6C3.03923 12.6 3.13923 12.6 3.23923 12.5L6.63923 10.8L10.0392 12.5C10.2392 12.6 10.5392 12.6 10.7392 12.5C10.9392 12.4 11.0392 12.1 11.0392 11.9L10.3392 8.2L13.1392 5.6C13.2392 5.5 13.3392 5.3 13.2392 5.1Z" fill="#FFD80E"/>
</svg>
