<svg xmlns="http://www.w3.org/2000/svg" data-name="Layer 1" viewBox="0 0 24 30" x="0px" y="0px"><title>Error</title><path d="M18,13a1,1,0,0,0-1,1v5a1,1,0,0,1-1,1H8a1,1,0,0,1-1-1V5A1,1,0,0,1,8,4h7a1,1,0,0,0,0-2H8A3,3,0,0,0,5,5V19a3,3,0,0,0,3,3h8a3,3,0,0,0,3-3V14A1,1,0,0,0,18,13Z"/><path d="M10,17a1,1,0,0,0,0,2h4.06a1,1,0,1,0,0-2Z"/><path d="M18,4a4,4,0,1,0,4,4A4,4,0,0,0,18,4Zm0,2a1.85,1.85,0,0,1,.48.07L16.09,8.52A1.89,1.89,0,0,1,16,8,2,2,0,0,1,18,6Zm0,4a2.42,2.42,0,0,1-.48-.06l2.39-2.45A1.77,1.77,0,0,1,20,8,2,2,0,0,1,18,10Z"/><path d="M12.71,9.85a1,1,0,0,0-1.42,0L9.83,11.3a1,1,0,0,0,0,1.42,1,1,0,0,0,1.17.16V15a1,1,0,0,0,2,0V12.88a1,1,0,0,0,.46.13,1,1,0,0,0,.71-.29,1,1,0,0,0,0-1.42Z"/><text x="0" y="39" fill="#000000" font-size="5px" font-weight="bold" font-family="'Helvetica Neue', Helvetica, Arial-Unicode, Arial, Sans-serif">Created by notplayink!</text><text x="0" y="44" fill="#000000" font-size="5px" font-weight="bold" font-family="'Helvetica Neue', Helvetica, Arial-Unicode, Arial, Sans-serif">from the Noun Project</text></svg>