<svg width="14" height="13" viewBox="0 0 14 13" fill="none" xmlns="http://www.w3.org/2000/svg">
<path id="Vector" d="M8 0H6C2.7 0 0 2.6 0 5.9V12.4C0 12.8 0.2 12.9 0.3 13C0.4 13 0.4 13 0.5 13C0.8 13 1 12.8 1.3 12.5C1.7 12.2 2.2 11.7 2.7 11.7H8C11.3 11.7 14 9.1 14 5.8C14 2.6 11.3 0 8 0ZM9.8 8.2H4.2C3.9 8.2 3.7 8 3.7 7.8C3.7 7.6 3.9 7.3 4.2 7.3H9.7C10 7.3 10.2 7.5 10.2 7.8C10.2 8.1 10.1 8.2 9.8 8.2ZM9.8 6.5H4.2C3.9 6.5 3.7 6.3 3.7 6C3.7 5.7 3.9 5.5 4.2 5.5H9.7C10 5.5 10.2 5.7 10.2 6C10.2 6.3 10.1 6.5 9.8 6.5ZM9.8 4.8H4.2C3.9 4.8 3.7 4.6 3.7 4.3C3.7 4 3.9 3.8 4.2 3.8H9.7C10 3.8 10.2 4 10.2 4.3C10.2 4.6 10.1 4.8 9.8 4.8Z" fill="#A9A9A9"/>
</svg>
