<?xml version="1.0" encoding="iso-8859-1"?>
<!-- Generator: Adobe Illustrator 19.0.0, SVG Export Plug-In . SVG Version: 6.00 Build 0)  -->
<svg version="1.1" id="Capa_1" xmlns="http://www.w3.org/2000/svg" xmlns:xlink="http://www.w3.org/1999/xlink" x="0px" y="0px"
	 viewBox="0 0 512 512" style="enable-background:new 0 0 512 512;" xml:space="preserve">
<g>
	<g>
		<path d="M506.968,36.279c-0.013-0.415-0.038-0.836-0.075-1.25c-1.545-16.924-15.015-29.69-30.852-29.69c-0.006,0-0.006,0-0.013,0
			L273.113,0.314c-5.158-0.119-10.146,1.866-13.789,5.516L9.291,255.855C3.298,261.848,0,269.701,0,277.975
			c0,8.28,3.298,16.133,9.298,22.126l202.287,202.287v0.006c6.201,6.201,14.166,9.298,22.126,9.298
			c7.947,0,15.894-3.091,22.076-9.266l250.66-249.404c3.669-3.65,5.679-8.651,5.547-13.827L506.968,36.279z M238.221,475.738
			l-0.019-0.025c0.006,0.006,0.013,0.006,0.019,0.019V475.738z M233.711,471.215L40.476,277.981L280.262,38.189l189.17,4.687
			l4.68,189.145L233.711,471.215z"/>
	</g>
</g>
<g>
	<g>
		<path d="M345.521,93.912c-39.836,0-72.245,32.41-72.245,72.245c0,39.835,32.41,72.245,72.245,72.245
			c39.835,0,72.245-32.41,72.245-72.245C417.767,126.322,385.357,93.912,345.521,93.912z M345.521,200.71
			c-19.048,0-34.552-15.498-34.552-34.552c0-19.054,15.505-34.552,34.552-34.552s34.552,15.498,34.552,34.552
			C380.074,185.211,364.569,200.71,345.521,200.71z"/>
	</g>
</g>
<g>
</g>
<g>
</g>
<g>
</g>
<g>
</g>
<g>
</g>
<g>
</g>
<g>
</g>
<g>
</g>
<g>
</g>
<g>
</g>
<g>
</g>
<g>
</g>
<g>
</g>
<g>
</g>
<g>
</g>
</svg>
